<?xml version="1.0" standalone="no"?>
<!DOCTYPE svg PUBLIC "-//W3C//DTD SVG 1.1//EN" "http://www.w3.org/Graphics/SVG/1.1/DTD/svg11.dtd">
<svg width="800" height="600" version="1.1" xmlns="http://www.w3.org/2000/svg">
<rect width="800" height="600" x="0" y="0" style="fill:rgb(238,238,238);stroke:none"/>
<rect width="800" height="600" x="0" y="0" style="fill:rgb(255,255,255);stroke:none"/>
<text x="2" y="566" fill="rgb(0,0,0)" font-family="Arial" font-size="12">0</text>
<text x="2" y="466" fill="rgb(0,0,0)" font-family="Arial" font-size="12">500</text>
<text x="2" y="366" fill="rgb(0,0,0)" font-family="Arial" font-size="12">1000</text>
<text x="2" y="266" fill="rgb(0,0,0)" font-family="Arial" font-size="12">1500</text>
<text x="2" y="166" fill="rgb(0,0,0)" font-family="Arial" font-size="12">2000</text>
<text x="2" y="66" fill="rgb(0,0,0)" font-family="Arial" font-size="12">2500</text>
<text x="274" y="30" fill="rgb(0,0,0)" font-family="Arial" font-size="12">Quality score distribution over all sequences</text>
<line x1="37" y1="560" x2="790" y2="560" stroke="rgb(0,0,0)" stroke-width="1"/>
<line x1="37" y1="560" x2="37" y2="40" stroke="rgb(0,0,0)" stroke-width="1"/>
<text x="281" y="595" fill="rgb(0,0,0)" font-family="Arial" font-size="12">Mean Sequence Quality (Phred Score)</text>
<text x="48" y="575" fill="rgb(0,0,0)" font-family="Arial" font-size="12">0</text>
<rect width="30" height="520" x="67" y="40" style="fill:rgb(230,230,230);stroke:none"/>
<text x="78" y="575" fill="rgb(0,0,0)" font-family="Arial" font-size="12">1</text>
<text x="108" y="575" fill="rgb(0,0,0)" font-family="Arial" font-size="12">2</text>
<rect width="30" height="520" x="127" y="40" style="fill:rgb(230,230,230);stroke:none"/>
<text x="138" y="575" fill="rgb(0,0,0)" font-family="Arial" font-size="12">3</text>
<text x="168" y="575" fill="rgb(0,0,0)" font-family="Arial" font-size="12">4</text>
<rect width="30" height="520" x="187" y="40" style="fill:rgb(230,230,230);stroke:none"/>
<text x="198" y="575" fill="rgb(0,0,0)" font-family="Arial" font-size="12">5</text>
<text x="228" y="575" fill="rgb(0,0,0)" font-family="Arial" font-size="12">6</text>
<rect width="30" height="520" x="247" y="40" style="fill:rgb(230,230,230);stroke:none"/>
<text x="258" y="575" fill="rgb(0,0,0)" font-family="Arial" font-size="12">7</text>
<text x="288" y="575" fill="rgb(0,0,0)" font-family="Arial" font-size="12">8</text>
<rect width="30" height="520" x="307" y="40" style="fill:rgb(230,230,230);stroke:none"/>
<text x="318" y="575" fill="rgb(0,0,0)" font-family="Arial" font-size="12">9</text>
<text x="344" y="575" fill="rgb(0,0,0)" font-family="Arial" font-size="12">10</text>
<rect width="30" height="520" x="367" y="40" style="fill:rgb(230,230,230);stroke:none"/>
<text x="374" y="575" fill="rgb(0,0,0)" font-family="Arial" font-size="12">11</text>
<text x="404" y="575" fill="rgb(0,0,0)" font-family="Arial" font-size="12">12</text>
<rect width="30" height="520" x="427" y="40" style="fill:rgb(230,230,230);stroke:none"/>
<text x="434" y="575" fill="rgb(0,0,0)" font-family="Arial" font-size="12">13</text>
<text x="464" y="575" fill="rgb(0,0,0)" font-family="Arial" font-size="12">14</text>
<rect width="30" height="520" x="487" y="40" style="fill:rgb(230,230,230);stroke:none"/>
<text x="494" y="575" fill="rgb(0,0,0)" font-family="Arial" font-size="12">15</text>
<text x="524" y="575" fill="rgb(0,0,0)" font-family="Arial" font-size="12">16</text>
<rect width="30" height="520" x="547" y="40" style="fill:rgb(230,230,230);stroke:none"/>
<text x="554" y="575" fill="rgb(0,0,0)" font-family="Arial" font-size="12">17</text>
<text x="584" y="575" fill="rgb(0,0,0)" font-family="Arial" font-size="12">18</text>
<rect width="30" height="520" x="607" y="40" style="fill:rgb(230,230,230);stroke:none"/>
<text x="614" y="575" fill="rgb(0,0,0)" font-family="Arial" font-size="12">19</text>
<text x="644" y="575" fill="rgb(0,0,0)" font-family="Arial" font-size="12">20</text>
<rect width="30" height="520" x="667" y="40" style="fill:rgb(230,230,230);stroke:none"/>
<text x="674" y="575" fill="rgb(0,0,0)" font-family="Arial" font-size="12">21</text>
<text x="704" y="575" fill="rgb(0,0,0)" font-family="Arial" font-size="12">22</text>
<rect width="30" height="520" x="727" y="40" style="fill:rgb(230,230,230);stroke:none"/>
<text x="734" y="575" fill="rgb(0,0,0)" font-family="Arial" font-size="12">23</text>
<text x="764" y="575" fill="rgb(0,0,0)" font-family="Arial" font-size="12">24</text>
<line x1="37" y1="560" x2="790" y2="560" stroke="rgb(180,180,180)" stroke-width="1"/>
<line x1="37" y1="460" x2="790" y2="460" stroke="rgb(180,180,180)" stroke-width="1"/>
<line x1="37" y1="360" x2="790" y2="360" stroke="rgb(180,180,180)" stroke-width="1"/>
<line x1="37" y1="260" x2="790" y2="260" stroke="rgb(180,180,180)" stroke-width="1"/>
<line x1="37" y1="160" x2="790" y2="160" stroke="rgb(180,180,180)" stroke-width="1"/>
<line x1="37" y1="60" x2="790" y2="60" stroke="rgb(180,180,180)" stroke-width="1"/>
<line x1="52" y1="560" x2="82" y2="516" stroke="rgb(136,34,85)" stroke-width="1"/>
<line x1="82" y1="516" x2="112" y2="560" stroke="rgb(136,34,85)" stroke-width="1"/>
<line x1="112" y1="560" x2="142" y2="560" stroke="rgb(136,34,85)" stroke-width="1"/>
<line x1="142" y1="560" x2="172" y2="365" stroke="rgb(136,34,85)" stroke-width="1"/>
<line x1="172" y1="365" x2="202" y2="372" stroke="rgb(136,34,85)" stroke-width="1"/>
<line x1="202" y1="372" x2="232" y2="558" stroke="rgb(136,34,85)" stroke-width="1"/>
<line x1="232" y1="558" x2="262" y2="560" stroke="rgb(136,34,85)" stroke-width="1"/>
<line x1="262" y1="560" x2="292" y2="560" stroke="rgb(136,34,85)" stroke-width="1"/>
<line x1="292" y1="560" x2="322" y2="560" stroke="rgb(136,34,85)" stroke-width="1"/>
<line x1="322" y1="560" x2="352" y2="560" stroke="rgb(136,34,85)" stroke-width="1"/>
<line x1="352" y1="560" x2="382" y2="560" stroke="rgb(136,34,85)" stroke-width="1"/>
<line x1="382" y1="560" x2="412" y2="560" stroke="rgb(136,34,85)" stroke-width="1"/>
<line x1="412" y1="560" x2="442" y2="560" stroke="rgb(136,34,85)" stroke-width="1"/>
<line x1="442" y1="560" x2="472" y2="559" stroke="rgb(136,34,85)" stroke-width="1"/>
<line x1="472" y1="559" x2="502" y2="550" stroke="rgb(136,34,85)" stroke-width="1"/>
<line x1="502" y1="550" x2="532" y2="530" stroke="rgb(136,34,85)" stroke-width="1"/>
<line x1="532" y1="530" x2="562" y2="445" stroke="rgb(136,34,85)" stroke-width="1"/>
<line x1="562" y1="445" x2="592" y2="206" stroke="rgb(136,34,85)" stroke-width="1"/>
<line x1="592" y1="206" x2="622" y2="40" stroke="rgb(136,34,85)" stroke-width="1"/>
<line x1="622" y1="40" x2="652" y2="190" stroke="rgb(136,34,85)" stroke-width="1"/>
<line x1="652" y1="190" x2="682" y2="438" stroke="rgb(136,34,85)" stroke-width="1"/>
<line x1="682" y1="438" x2="712" y2="526" stroke="rgb(136,34,85)" stroke-width="1"/>
<line x1="712" y1="526" x2="742" y2="553" stroke="rgb(136,34,85)" stroke-width="1"/>
<line x1="742" y1="553" x2="772" y2="558" stroke="rgb(136,34,85)" stroke-width="1"/>
<rect width="183" height="23" x="607" y="40" style="fill:rgb(255,255,255);stroke:none"/>
<rect width="183" height="23" x="607" y="40" rx="0" ry="0" style="fill:none;stroke-width:1;stroke:rgb(192,192,192)"/>
<text x="610" y="55" fill="rgb(136,34,85)" font-family="Arial" font-size="12" font-weight="bold">Average Quality per read</text>
</svg>
