<?xml version="1.0" standalone="no"?>
<!DOCTYPE svg PUBLIC "-//W3C//DTD SVG 1.1//EN" "http://www.w3.org/Graphics/SVG/1.1/DTD/svg11.dtd">
<svg width="800" height="600" version="1.1" xmlns="http://www.w3.org/2000/svg">
<rect width="800" height="600" x="0" y="0" style="fill:rgb(238,238,238);stroke:none"/>
<rect width="800" height="600" x="0" y="0" style="fill:rgb(255,255,255);stroke:none"/>
<text x="2" y="566" fill="rgb(0,0,0)" font-family="Arial" font-size="12">0</text>
<text x="2" y="540" fill="rgb(0,0,0)" font-family="Arial" font-size="12">2</text>
<text x="2" y="513" fill="rgb(0,0,0)" font-family="Arial" font-size="12">4</text>
<text x="2" y="486" fill="rgb(0,0,0)" font-family="Arial" font-size="12">6</text>
<text x="2" y="460" fill="rgb(0,0,0)" font-family="Arial" font-size="12">8</text>
<text x="2" y="433" fill="rgb(0,0,0)" font-family="Arial" font-size="12">10</text>
<text x="2" y="406" fill="rgb(0,0,0)" font-family="Arial" font-size="12">12</text>
<text x="2" y="380" fill="rgb(0,0,0)" font-family="Arial" font-size="12">14</text>
<text x="2" y="353" fill="rgb(0,0,0)" font-family="Arial" font-size="12">16</text>
<text x="2" y="326" fill="rgb(0,0,0)" font-family="Arial" font-size="12">18</text>
<text x="2" y="300" fill="rgb(0,0,0)" font-family="Arial" font-size="12">20</text>
<text x="2" y="273" fill="rgb(0,0,0)" font-family="Arial" font-size="12">22</text>
<text x="2" y="246" fill="rgb(0,0,0)" font-family="Arial" font-size="12">24</text>
<text x="2" y="220" fill="rgb(0,0,0)" font-family="Arial" font-size="12">26</text>
<text x="2" y="193" fill="rgb(0,0,0)" font-family="Arial" font-size="12">28</text>
<text x="2" y="166" fill="rgb(0,0,0)" font-family="Arial" font-size="12">30</text>
<text x="2" y="140" fill="rgb(0,0,0)" font-family="Arial" font-size="12">32</text>
<text x="2" y="113" fill="rgb(0,0,0)" font-family="Arial" font-size="12">34</text>
<text x="2" y="86" fill="rgb(0,0,0)" font-family="Arial" font-size="12">36</text>
<text x="2" y="60" fill="rgb(0,0,0)" font-family="Arial" font-size="12">38</text>
<text x="206" y="30" fill="rgb(0,0,0)" font-family="Arial" font-size="12">Quality scores across all bases (Sanger / Illumina 1.9 encoding)</text>
<rect width="17" height="266" x="21" y="294" style="fill:rgb(230,175,175);stroke:none"/>
<rect width="17" height="107" x="21" y="187" style="fill:rgb(230,215,175);stroke:none"/>
<rect width="17" height="147" x="21" y="40" style="fill:rgb(175,230,175);stroke:none"/>
<text x="25" y="575" fill="rgb(0,0,0)" font-family="Arial" font-size="12">1</text>
<rect width="17" height="266" x="38" y="294" style="fill:rgb(230,195,195);stroke:none"/>
<rect width="17" height="107" x="38" y="187" style="fill:rgb(230,220,195);stroke:none"/>
<rect width="17" height="147" x="38" y="40" style="fill:rgb(195,230,195);stroke:none"/>
<text x="42" y="575" fill="rgb(0,0,0)" font-family="Arial" font-size="12">2</text>
<rect width="17" height="266" x="55" y="294" style="fill:rgb(230,175,175);stroke:none"/>
<rect width="17" height="107" x="55" y="187" style="fill:rgb(230,215,175);stroke:none"/>
<rect width="17" height="147" x="55" y="40" style="fill:rgb(175,230,175);stroke:none"/>
<text x="59" y="575" fill="rgb(0,0,0)" font-family="Arial" font-size="12">3</text>
<rect width="17" height="266" x="72" y="294" style="fill:rgb(230,195,195);stroke:none"/>
<rect width="17" height="107" x="72" y="187" style="fill:rgb(230,220,195);stroke:none"/>
<rect width="17" height="147" x="72" y="40" style="fill:rgb(195,230,195);stroke:none"/>
<text x="76" y="575" fill="rgb(0,0,0)" font-family="Arial" font-size="12">4</text>
<rect width="17" height="266" x="89" y="294" style="fill:rgb(230,175,175);stroke:none"/>
<rect width="17" height="107" x="89" y="187" style="fill:rgb(230,215,175);stroke:none"/>
<rect width="17" height="147" x="89" y="40" style="fill:rgb(175,230,175);stroke:none"/>
<text x="93" y="575" fill="rgb(0,0,0)" font-family="Arial" font-size="12">5</text>
<rect width="17" height="266" x="106" y="294" style="fill:rgb(230,195,195);stroke:none"/>
<rect width="17" height="107" x="106" y="187" style="fill:rgb(230,220,195);stroke:none"/>
<rect width="17" height="147" x="106" y="40" style="fill:rgb(195,230,195);stroke:none"/>
<text x="110" y="575" fill="rgb(0,0,0)" font-family="Arial" font-size="12">6</text>
<rect width="17" height="266" x="123" y="294" style="fill:rgb(230,175,175);stroke:none"/>
<rect width="17" height="107" x="123" y="187" style="fill:rgb(230,215,175);stroke:none"/>
<rect width="17" height="147" x="123" y="40" style="fill:rgb(175,230,175);stroke:none"/>
<text x="127" y="575" fill="rgb(0,0,0)" font-family="Arial" font-size="12">7</text>
<rect width="17" height="266" x="140" y="294" style="fill:rgb(230,195,195);stroke:none"/>
<rect width="17" height="107" x="140" y="187" style="fill:rgb(230,220,195);stroke:none"/>
<rect width="17" height="147" x="140" y="40" style="fill:rgb(195,230,195);stroke:none"/>
<text x="144" y="575" fill="rgb(0,0,0)" font-family="Arial" font-size="12">8</text>
<rect width="17" height="266" x="157" y="294" style="fill:rgb(230,175,175);stroke:none"/>
<rect width="17" height="107" x="157" y="187" style="fill:rgb(230,215,175);stroke:none"/>
<rect width="17" height="147" x="157" y="40" style="fill:rgb(175,230,175);stroke:none"/>
<text x="161" y="575" fill="rgb(0,0,0)" font-family="Arial" font-size="12">9</text>
<rect width="17" height="266" x="174" y="294" style="fill:rgb(230,195,195);stroke:none"/>
<rect width="17" height="107" x="174" y="187" style="fill:rgb(230,220,195);stroke:none"/>
<rect width="17" height="147" x="174" y="40" style="fill:rgb(195,230,195);stroke:none"/>
<rect width="17" height="266" x="191" y="294" style="fill:rgb(230,175,175);stroke:none"/>
<rect width="17" height="107" x="191" y="187" style="fill:rgb(230,215,175);stroke:none"/>
<rect width="17" height="147" x="191" y="40" style="fill:rgb(175,230,175);stroke:none"/>
<text x="181" y="575" fill="rgb(0,0,0)" font-family="Arial" font-size="12">20-29</text>
<rect width="17" height="266" x="208" y="294" style="fill:rgb(230,195,195);stroke:none"/>
<rect width="17" height="107" x="208" y="187" style="fill:rgb(230,220,195);stroke:none"/>
<rect width="17" height="147" x="208" y="40" style="fill:rgb(195,230,195);stroke:none"/>
<rect width="17" height="266" x="225" y="294" style="fill:rgb(230,175,175);stroke:none"/>
<rect width="17" height="107" x="225" y="187" style="fill:rgb(230,215,175);stroke:none"/>
<rect width="17" height="147" x="225" y="40" style="fill:rgb(175,230,175);stroke:none"/>
<rect width="17" height="266" x="242" y="294" style="fill:rgb(230,195,195);stroke:none"/>
<rect width="17" height="107" x="242" y="187" style="fill:rgb(230,220,195);stroke:none"/>
<rect width="17" height="147" x="242" y="40" style="fill:rgb(195,230,195);stroke:none"/>
<text x="232" y="575" fill="rgb(0,0,0)" font-family="Arial" font-size="12">50-59</text>
<rect width="17" height="266" x="259" y="294" style="fill:rgb(230,175,175);stroke:none"/>
<rect width="17" height="107" x="259" y="187" style="fill:rgb(230,215,175);stroke:none"/>
<rect width="17" height="147" x="259" y="40" style="fill:rgb(175,230,175);stroke:none"/>
<rect width="17" height="266" x="276" y="294" style="fill:rgb(230,195,195);stroke:none"/>
<rect width="17" height="107" x="276" y="187" style="fill:rgb(230,220,195);stroke:none"/>
<rect width="17" height="147" x="276" y="40" style="fill:rgb(195,230,195);stroke:none"/>
<rect width="17" height="266" x="293" y="294" style="fill:rgb(230,175,175);stroke:none"/>
<rect width="17" height="107" x="293" y="187" style="fill:rgb(230,215,175);stroke:none"/>
<rect width="17" height="147" x="293" y="40" style="fill:rgb(175,230,175);stroke:none"/>
<text x="283" y="575" fill="rgb(0,0,0)" font-family="Arial" font-size="12">80-89</text>
<rect width="17" height="266" x="310" y="294" style="fill:rgb(230,195,195);stroke:none"/>
<rect width="17" height="107" x="310" y="187" style="fill:rgb(230,220,195);stroke:none"/>
<rect width="17" height="147" x="310" y="40" style="fill:rgb(195,230,195);stroke:none"/>
<rect width="17" height="266" x="327" y="294" style="fill:rgb(230,175,175);stroke:none"/>
<rect width="17" height="107" x="327" y="187" style="fill:rgb(230,215,175);stroke:none"/>
<rect width="17" height="147" x="327" y="40" style="fill:rgb(175,230,175);stroke:none"/>
<rect width="17" height="266" x="344" y="294" style="fill:rgb(230,195,195);stroke:none"/>
<rect width="17" height="107" x="344" y="187" style="fill:rgb(230,220,195);stroke:none"/>
<rect width="17" height="147" x="344" y="40" style="fill:rgb(195,230,195);stroke:none"/>
<text x="326" y="575" fill="rgb(0,0,0)" font-family="Arial" font-size="12">110-119</text>
<rect width="17" height="266" x="361" y="294" style="fill:rgb(230,175,175);stroke:none"/>
<rect width="17" height="107" x="361" y="187" style="fill:rgb(230,215,175);stroke:none"/>
<rect width="17" height="147" x="361" y="40" style="fill:rgb(175,230,175);stroke:none"/>
<rect width="17" height="266" x="378" y="294" style="fill:rgb(230,195,195);stroke:none"/>
<rect width="17" height="107" x="378" y="187" style="fill:rgb(230,220,195);stroke:none"/>
<rect width="17" height="147" x="378" y="40" style="fill:rgb(195,230,195);stroke:none"/>
<rect width="17" height="266" x="395" y="294" style="fill:rgb(230,175,175);stroke:none"/>
<rect width="17" height="107" x="395" y="187" style="fill:rgb(230,215,175);stroke:none"/>
<rect width="17" height="147" x="395" y="40" style="fill:rgb(175,230,175);stroke:none"/>
<rect width="17" height="266" x="412" y="294" style="fill:rgb(230,195,195);stroke:none"/>
<rect width="17" height="107" x="412" y="187" style="fill:rgb(230,220,195);stroke:none"/>
<rect width="17" height="147" x="412" y="40" style="fill:rgb(195,230,195);stroke:none"/>
<text x="394" y="575" fill="rgb(0,0,0)" font-family="Arial" font-size="12">150-159</text>
<rect width="17" height="266" x="429" y="294" style="fill:rgb(230,175,175);stroke:none"/>
<rect width="17" height="107" x="429" y="187" style="fill:rgb(230,215,175);stroke:none"/>
<rect width="17" height="147" x="429" y="40" style="fill:rgb(175,230,175);stroke:none"/>
<rect width="17" height="266" x="446" y="294" style="fill:rgb(230,195,195);stroke:none"/>
<rect width="17" height="107" x="446" y="187" style="fill:rgb(230,220,195);stroke:none"/>
<rect width="17" height="147" x="446" y="40" style="fill:rgb(195,230,195);stroke:none"/>
<rect width="17" height="266" x="463" y="294" style="fill:rgb(230,175,175);stroke:none"/>
<rect width="17" height="107" x="463" y="187" style="fill:rgb(230,215,175);stroke:none"/>
<rect width="17" height="147" x="463" y="40" style="fill:rgb(175,230,175);stroke:none"/>
<rect width="17" height="266" x="480" y="294" style="fill:rgb(230,195,195);stroke:none"/>
<rect width="17" height="107" x="480" y="187" style="fill:rgb(230,220,195);stroke:none"/>
<rect width="17" height="147" x="480" y="40" style="fill:rgb(195,230,195);stroke:none"/>
<text x="462" y="575" fill="rgb(0,0,0)" font-family="Arial" font-size="12">190-199</text>
<rect width="17" height="266" x="497" y="294" style="fill:rgb(230,175,175);stroke:none"/>
<rect width="17" height="107" x="497" y="187" style="fill:rgb(230,215,175);stroke:none"/>
<rect width="17" height="147" x="497" y="40" style="fill:rgb(175,230,175);stroke:none"/>
<rect width="17" height="266" x="514" y="294" style="fill:rgb(230,195,195);stroke:none"/>
<rect width="17" height="107" x="514" y="187" style="fill:rgb(230,220,195);stroke:none"/>
<rect width="17" height="147" x="514" y="40" style="fill:rgb(195,230,195);stroke:none"/>
<rect width="17" height="266" x="531" y="294" style="fill:rgb(230,175,175);stroke:none"/>
<rect width="17" height="107" x="531" y="187" style="fill:rgb(230,215,175);stroke:none"/>
<rect width="17" height="147" x="531" y="40" style="fill:rgb(175,230,175);stroke:none"/>
<rect width="17" height="266" x="548" y="294" style="fill:rgb(230,195,195);stroke:none"/>
<rect width="17" height="107" x="548" y="187" style="fill:rgb(230,220,195);stroke:none"/>
<rect width="17" height="147" x="548" y="40" style="fill:rgb(195,230,195);stroke:none"/>
<text x="530" y="575" fill="rgb(0,0,0)" font-family="Arial" font-size="12">230-239</text>
<rect width="17" height="266" x="565" y="294" style="fill:rgb(230,175,175);stroke:none"/>
<rect width="17" height="107" x="565" y="187" style="fill:rgb(230,215,175);stroke:none"/>
<rect width="17" height="147" x="565" y="40" style="fill:rgb(175,230,175);stroke:none"/>
<rect width="17" height="266" x="582" y="294" style="fill:rgb(230,195,195);stroke:none"/>
<rect width="17" height="107" x="582" y="187" style="fill:rgb(230,220,195);stroke:none"/>
<rect width="17" height="147" x="582" y="40" style="fill:rgb(195,230,195);stroke:none"/>
<rect width="17" height="266" x="599" y="294" style="fill:rgb(230,175,175);stroke:none"/>
<rect width="17" height="107" x="599" y="187" style="fill:rgb(230,215,175);stroke:none"/>
<rect width="17" height="147" x="599" y="40" style="fill:rgb(175,230,175);stroke:none"/>
<rect width="17" height="266" x="616" y="294" style="fill:rgb(230,195,195);stroke:none"/>
<rect width="17" height="107" x="616" y="187" style="fill:rgb(230,220,195);stroke:none"/>
<rect width="17" height="147" x="616" y="40" style="fill:rgb(195,230,195);stroke:none"/>
<text x="598" y="575" fill="rgb(0,0,0)" font-family="Arial" font-size="12">270-279</text>
<rect width="17" height="266" x="633" y="294" style="fill:rgb(230,175,175);stroke:none"/>
<rect width="17" height="107" x="633" y="187" style="fill:rgb(230,215,175);stroke:none"/>
<rect width="17" height="147" x="633" y="40" style="fill:rgb(175,230,175);stroke:none"/>
<rect width="17" height="266" x="650" y="294" style="fill:rgb(230,195,195);stroke:none"/>
<rect width="17" height="107" x="650" y="187" style="fill:rgb(230,220,195);stroke:none"/>
<rect width="17" height="147" x="650" y="40" style="fill:rgb(195,230,195);stroke:none"/>
<rect width="17" height="266" x="667" y="294" style="fill:rgb(230,175,175);stroke:none"/>
<rect width="17" height="107" x="667" y="187" style="fill:rgb(230,215,175);stroke:none"/>
<rect width="17" height="147" x="667" y="40" style="fill:rgb(175,230,175);stroke:none"/>
<rect width="17" height="266" x="684" y="294" style="fill:rgb(230,195,195);stroke:none"/>
<rect width="17" height="107" x="684" y="187" style="fill:rgb(230,220,195);stroke:none"/>
<rect width="17" height="147" x="684" y="40" style="fill:rgb(195,230,195);stroke:none"/>
<text x="666" y="575" fill="rgb(0,0,0)" font-family="Arial" font-size="12">310-319</text>
<rect width="17" height="266" x="701" y="294" style="fill:rgb(230,175,175);stroke:none"/>
<rect width="17" height="107" x="701" y="187" style="fill:rgb(230,215,175);stroke:none"/>
<rect width="17" height="147" x="701" y="40" style="fill:rgb(175,230,175);stroke:none"/>
<rect width="17" height="266" x="718" y="294" style="fill:rgb(230,195,195);stroke:none"/>
<rect width="17" height="107" x="718" y="187" style="fill:rgb(230,220,195);stroke:none"/>
<rect width="17" height="147" x="718" y="40" style="fill:rgb(195,230,195);stroke:none"/>
<rect width="17" height="266" x="735" y="294" style="fill:rgb(230,175,175);stroke:none"/>
<rect width="17" height="107" x="735" y="187" style="fill:rgb(230,215,175);stroke:none"/>
<rect width="17" height="147" x="735" y="40" style="fill:rgb(175,230,175);stroke:none"/>
<rect width="17" height="266" x="752" y="294" style="fill:rgb(230,195,195);stroke:none"/>
<rect width="17" height="107" x="752" y="187" style="fill:rgb(230,220,195);stroke:none"/>
<rect width="17" height="147" x="752" y="40" style="fill:rgb(195,230,195);stroke:none"/>
<text x="734" y="575" fill="rgb(0,0,0)" font-family="Arial" font-size="12">350-354</text>
<line x1="21" y1="560" x2="790" y2="560" stroke="rgb(0,0,0)" stroke-width="1"/>
<line x1="21" y1="560" x2="21" y2="40" stroke="rgb(0,0,0)" stroke-width="1"/>
<text x="336" y="595" fill="rgb(0,0,0)" font-family="Arial" font-size="12">Position in read (bp)</text>
<rect width="13" height="280" x="23" y="200" style="fill:rgb(240,240,0);stroke:none"/>
<rect width="13" height="280" x="23" y="200" rx="0" ry="0" style="fill:none;stroke-width:1;stroke:rgb(0,0,0)"/>
<line x1="29" y1="94" x2="29" y2="200" stroke="rgb(0,0,0)" stroke-width="1"/>
<line x1="23" y1="94" x2="36" y2="94" stroke="rgb(0,0,0)" stroke-width="1"/>
<line x1="29" y1="534" x2="29" y2="480" stroke="rgb(0,0,0)" stroke-width="1"/>
<line x1="23" y1="534" x2="36" y2="534" stroke="rgb(0,0,0)" stroke-width="1"/>
<line x1="23" y1="374" x2="36" y2="374" stroke="rgb(200,0,0)" stroke-width="1"/>
<rect width="13" height="280" x="40" y="200" style="fill:rgb(240,240,0);stroke:none"/>
<rect width="13" height="280" x="40" y="200" rx="0" ry="0" style="fill:none;stroke-width:1;stroke:rgb(0,0,0)"/>
<line x1="46" y1="107" x2="46" y2="200" stroke="rgb(0,0,0)" stroke-width="1"/>
<line x1="40" y1="107" x2="53" y2="107" stroke="rgb(0,0,0)" stroke-width="1"/>
<line x1="46" y1="534" x2="46" y2="480" stroke="rgb(0,0,0)" stroke-width="1"/>
<line x1="40" y1="534" x2="53" y2="534" stroke="rgb(0,0,0)" stroke-width="1"/>
<line x1="40" y1="374" x2="53" y2="374" stroke="rgb(200,0,0)" stroke-width="1"/>
<rect width="13" height="280" x="57" y="200" style="fill:rgb(240,240,0);stroke:none"/>
<rect width="13" height="280" x="57" y="200" rx="0" ry="0" style="fill:none;stroke-width:1;stroke:rgb(0,0,0)"/>
<line x1="63" y1="107" x2="63" y2="200" stroke="rgb(0,0,0)" stroke-width="1"/>
<line x1="57" y1="107" x2="70" y2="107" stroke="rgb(0,0,0)" stroke-width="1"/>
<line x1="63" y1="534" x2="63" y2="480" stroke="rgb(0,0,0)" stroke-width="1"/>
<line x1="57" y1="534" x2="70" y2="534" stroke="rgb(0,0,0)" stroke-width="1"/>
<line x1="57" y1="374" x2="70" y2="374" stroke="rgb(200,0,0)" stroke-width="1"/>
<rect width="13" height="280" x="74" y="200" style="fill:rgb(240,240,0);stroke:none"/>
<rect width="13" height="280" x="74" y="200" rx="0" ry="0" style="fill:none;stroke-width:1;stroke:rgb(0,0,0)"/>
<line x1="80" y1="107" x2="80" y2="200" stroke="rgb(0,0,0)" stroke-width="1"/>
<line x1="74" y1="107" x2="87" y2="107" stroke="rgb(0,0,0)" stroke-width="1"/>
<line x1="80" y1="534" x2="80" y2="480" stroke="rgb(0,0,0)" stroke-width="1"/>
<line x1="74" y1="534" x2="87" y2="534" stroke="rgb(0,0,0)" stroke-width="1"/>
<line x1="74" y1="374" x2="87" y2="374" stroke="rgb(200,0,0)" stroke-width="1"/>
<rect width="13" height="280" x="91" y="200" style="fill:rgb(240,240,0);stroke:none"/>
<rect width="13" height="280" x="91" y="200" rx="0" ry="0" style="fill:none;stroke-width:1;stroke:rgb(0,0,0)"/>
<line x1="97" y1="94" x2="97" y2="200" stroke="rgb(0,0,0)" stroke-width="1"/>
<line x1="91" y1="94" x2="104" y2="94" stroke="rgb(0,0,0)" stroke-width="1"/>
<line x1="97" y1="534" x2="97" y2="480" stroke="rgb(0,0,0)" stroke-width="1"/>
<line x1="91" y1="534" x2="104" y2="534" stroke="rgb(0,0,0)" stroke-width="1"/>
<line x1="91" y1="374" x2="104" y2="374" stroke="rgb(200,0,0)" stroke-width="1"/>
<rect width="13" height="280" x="108" y="214" style="fill:rgb(240,240,0);stroke:none"/>
<rect width="13" height="280" x="108" y="214" rx="0" ry="0" style="fill:none;stroke-width:1;stroke:rgb(0,0,0)"/>
<line x1="114" y1="107" x2="114" y2="214" stroke="rgb(0,0,0)" stroke-width="1"/>
<line x1="108" y1="107" x2="121" y2="107" stroke="rgb(0,0,0)" stroke-width="1"/>
<line x1="114" y1="534" x2="114" y2="494" stroke="rgb(0,0,0)" stroke-width="1"/>
<line x1="108" y1="534" x2="121" y2="534" stroke="rgb(0,0,0)" stroke-width="1"/>
<line x1="108" y1="374" x2="121" y2="374" stroke="rgb(200,0,0)" stroke-width="1"/>
<rect width="13" height="280" x="125" y="200" style="fill:rgb(240,240,0);stroke:none"/>
<rect width="13" height="280" x="125" y="200" rx="0" ry="0" style="fill:none;stroke-width:1;stroke:rgb(0,0,0)"/>
<line x1="131" y1="107" x2="131" y2="200" stroke="rgb(0,0,0)" stroke-width="1"/>
<line x1="125" y1="107" x2="138" y2="107" stroke="rgb(0,0,0)" stroke-width="1"/>
<line x1="131" y1="534" x2="131" y2="480" stroke="rgb(0,0,0)" stroke-width="1"/>
<line x1="125" y1="534" x2="138" y2="534" stroke="rgb(0,0,0)" stroke-width="1"/>
<line x1="125" y1="374" x2="138" y2="374" stroke="rgb(200,0,0)" stroke-width="1"/>
<rect width="13" height="280" x="142" y="200" style="fill:rgb(240,240,0);stroke:none"/>
<rect width="13" height="280" x="142" y="200" rx="0" ry="0" style="fill:none;stroke-width:1;stroke:rgb(0,0,0)"/>
<line x1="148" y1="94" x2="148" y2="200" stroke="rgb(0,0,0)" stroke-width="1"/>
<line x1="142" y1="94" x2="155" y2="94" stroke="rgb(0,0,0)" stroke-width="1"/>
<line x1="148" y1="534" x2="148" y2="480" stroke="rgb(0,0,0)" stroke-width="1"/>
<line x1="142" y1="534" x2="155" y2="534" stroke="rgb(0,0,0)" stroke-width="1"/>
<line x1="142" y1="374" x2="155" y2="374" stroke="rgb(200,0,0)" stroke-width="1"/>
<rect width="13" height="280" x="159" y="200" style="fill:rgb(240,240,0);stroke:none"/>
<rect width="13" height="280" x="159" y="200" rx="0" ry="0" style="fill:none;stroke-width:1;stroke:rgb(0,0,0)"/>
<line x1="165" y1="107" x2="165" y2="200" stroke="rgb(0,0,0)" stroke-width="1"/>
<line x1="159" y1="107" x2="172" y2="107" stroke="rgb(0,0,0)" stroke-width="1"/>
<line x1="165" y1="534" x2="165" y2="480" stroke="rgb(0,0,0)" stroke-width="1"/>
<line x1="159" y1="534" x2="172" y2="534" stroke="rgb(0,0,0)" stroke-width="1"/>
<line x1="159" y1="374" x2="172" y2="374" stroke="rgb(200,0,0)" stroke-width="1"/>
<rect width="13" height="280" x="176" y="202" style="fill:rgb(240,240,0);stroke:none"/>
<rect width="13" height="280" x="176" y="202" rx="0" ry="0" style="fill:none;stroke-width:1;stroke:rgb(0,0,0)"/>
<line x1="182" y1="102" x2="182" y2="202" stroke="rgb(0,0,0)" stroke-width="1"/>
<line x1="176" y1="102" x2="189" y2="102" stroke="rgb(0,0,0)" stroke-width="1"/>
<line x1="182" y1="534" x2="182" y2="482" stroke="rgb(0,0,0)" stroke-width="1"/>
<line x1="176" y1="534" x2="189" y2="534" stroke="rgb(0,0,0)" stroke-width="1"/>
<line x1="176" y1="374" x2="189" y2="374" stroke="rgb(200,0,0)" stroke-width="1"/>
<rect width="13" height="281" x="193" y="202" style="fill:rgb(240,240,0);stroke:none"/>
<rect width="13" height="281" x="193" y="202" rx="0" ry="0" style="fill:none;stroke-width:1;stroke:rgb(0,0,0)"/>
<line x1="199" y1="104" x2="199" y2="202" stroke="rgb(0,0,0)" stroke-width="1"/>
<line x1="193" y1="104" x2="206" y2="104" stroke="rgb(0,0,0)" stroke-width="1"/>
<line x1="199" y1="534" x2="199" y2="483" stroke="rgb(0,0,0)" stroke-width="1"/>
<line x1="193" y1="534" x2="206" y2="534" stroke="rgb(0,0,0)" stroke-width="1"/>
<line x1="193" y1="374" x2="206" y2="374" stroke="rgb(200,0,0)" stroke-width="1"/>
<rect width="13" height="283" x="210" y="200" style="fill:rgb(240,240,0);stroke:none"/>
<rect width="13" height="283" x="210" y="200" rx="0" ry="0" style="fill:none;stroke-width:1;stroke:rgb(0,0,0)"/>
<line x1="216" y1="107" x2="216" y2="200" stroke="rgb(0,0,0)" stroke-width="1"/>
<line x1="210" y1="107" x2="223" y2="107" stroke="rgb(0,0,0)" stroke-width="1"/>
<line x1="216" y1="534" x2="216" y2="483" stroke="rgb(0,0,0)" stroke-width="1"/>
<line x1="210" y1="534" x2="223" y2="534" stroke="rgb(0,0,0)" stroke-width="1"/>
<line x1="210" y1="374" x2="223" y2="374" stroke="rgb(200,0,0)" stroke-width="1"/>
<rect width="13" height="280" x="227" y="200" style="fill:rgb(240,240,0);stroke:none"/>
<rect width="13" height="280" x="227" y="200" rx="0" ry="0" style="fill:none;stroke-width:1;stroke:rgb(0,0,0)"/>
<line x1="233" y1="99" x2="233" y2="200" stroke="rgb(0,0,0)" stroke-width="1"/>
<line x1="227" y1="99" x2="240" y2="99" stroke="rgb(0,0,0)" stroke-width="1"/>
<line x1="233" y1="534" x2="233" y2="480" stroke="rgb(0,0,0)" stroke-width="1"/>
<line x1="227" y1="534" x2="240" y2="534" stroke="rgb(0,0,0)" stroke-width="1"/>
<line x1="227" y1="372" x2="240" y2="372" stroke="rgb(200,0,0)" stroke-width="1"/>
<rect width="13" height="280" x="244" y="200" style="fill:rgb(240,240,0);stroke:none"/>
<rect width="13" height="280" x="244" y="200" rx="0" ry="0" style="fill:none;stroke-width:1;stroke:rgb(0,0,0)"/>
<line x1="250" y1="103" x2="250" y2="200" stroke="rgb(0,0,0)" stroke-width="1"/>
<line x1="244" y1="103" x2="257" y2="103" stroke="rgb(0,0,0)" stroke-width="1"/>
<line x1="250" y1="534" x2="250" y2="480" stroke="rgb(0,0,0)" stroke-width="1"/>
<line x1="244" y1="534" x2="257" y2="534" stroke="rgb(0,0,0)" stroke-width="1"/>
<line x1="244" y1="372" x2="257" y2="372" stroke="rgb(200,0,0)" stroke-width="1"/>
<rect width="13" height="282" x="261" y="200" style="fill:rgb(240,240,0);stroke:none"/>
<rect width="13" height="282" x="261" y="200" rx="0" ry="0" style="fill:none;stroke-width:1;stroke:rgb(0,0,0)"/>
<line x1="267" y1="102" x2="267" y2="200" stroke="rgb(0,0,0)" stroke-width="1"/>
<line x1="261" y1="102" x2="274" y2="102" stroke="rgb(0,0,0)" stroke-width="1"/>
<line x1="267" y1="534" x2="267" y2="482" stroke="rgb(0,0,0)" stroke-width="1"/>
<line x1="261" y1="534" x2="274" y2="534" stroke="rgb(0,0,0)" stroke-width="1"/>
<line x1="261" y1="374" x2="274" y2="374" stroke="rgb(200,0,0)" stroke-width="1"/>
<rect width="13" height="282" x="278" y="200" style="fill:rgb(240,240,0);stroke:none"/>
<rect width="13" height="282" x="278" y="200" rx="0" ry="0" style="fill:none;stroke-width:1;stroke:rgb(0,0,0)"/>
<line x1="284" y1="99" x2="284" y2="200" stroke="rgb(0,0,0)" stroke-width="1"/>
<line x1="278" y1="99" x2="291" y2="99" stroke="rgb(0,0,0)" stroke-width="1"/>
<line x1="284" y1="534" x2="284" y2="482" stroke="rgb(0,0,0)" stroke-width="1"/>
<line x1="278" y1="534" x2="291" y2="534" stroke="rgb(0,0,0)" stroke-width="1"/>
<line x1="278" y1="372" x2="291" y2="372" stroke="rgb(200,0,0)" stroke-width="1"/>
<rect width="13" height="281" x="295" y="203" style="fill:rgb(240,240,0);stroke:none"/>
<rect width="13" height="281" x="295" y="203" rx="0" ry="0" style="fill:none;stroke-width:1;stroke:rgb(0,0,0)"/>
<line x1="301" y1="102" x2="301" y2="203" stroke="rgb(0,0,0)" stroke-width="1"/>
<line x1="295" y1="102" x2="308" y2="102" stroke="rgb(0,0,0)" stroke-width="1"/>
<line x1="301" y1="534" x2="301" y2="484" stroke="rgb(0,0,0)" stroke-width="1"/>
<line x1="295" y1="534" x2="308" y2="534" stroke="rgb(0,0,0)" stroke-width="1"/>
<line x1="295" y1="375" x2="308" y2="375" stroke="rgb(200,0,0)" stroke-width="1"/>
<rect width="13" height="280" x="312" y="204" style="fill:rgb(240,240,0);stroke:none"/>
<rect width="13" height="280" x="312" y="204" rx="0" ry="0" style="fill:none;stroke-width:1;stroke:rgb(0,0,0)"/>
<line x1="318" y1="103" x2="318" y2="204" stroke="rgb(0,0,0)" stroke-width="1"/>
<line x1="312" y1="103" x2="325" y2="103" stroke="rgb(0,0,0)" stroke-width="1"/>
<line x1="318" y1="534" x2="318" y2="484" stroke="rgb(0,0,0)" stroke-width="1"/>
<line x1="312" y1="534" x2="325" y2="534" stroke="rgb(0,0,0)" stroke-width="1"/>
<line x1="312" y1="374" x2="325" y2="374" stroke="rgb(200,0,0)" stroke-width="1"/>
<rect width="13" height="281" x="329" y="202" style="fill:rgb(240,240,0);stroke:none"/>
<rect width="13" height="281" x="329" y="202" rx="0" ry="0" style="fill:none;stroke-width:1;stroke:rgb(0,0,0)"/>
<line x1="335" y1="102" x2="335" y2="202" stroke="rgb(0,0,0)" stroke-width="1"/>
<line x1="329" y1="102" x2="342" y2="102" stroke="rgb(0,0,0)" stroke-width="1"/>
<line x1="335" y1="534" x2="335" y2="483" stroke="rgb(0,0,0)" stroke-width="1"/>
<line x1="329" y1="534" x2="342" y2="534" stroke="rgb(0,0,0)" stroke-width="1"/>
<line x1="329" y1="374" x2="342" y2="374" stroke="rgb(200,0,0)" stroke-width="1"/>
<rect width="13" height="277" x="346" y="206" style="fill:rgb(240,240,0);stroke:none"/>
<rect width="13" height="277" x="346" y="206" rx="0" ry="0" style="fill:none;stroke-width:1;stroke:rgb(0,0,0)"/>
<line x1="352" y1="98" x2="352" y2="206" stroke="rgb(0,0,0)" stroke-width="1"/>
<line x1="346" y1="98" x2="359" y2="98" stroke="rgb(0,0,0)" stroke-width="1"/>
<line x1="352" y1="534" x2="352" y2="483" stroke="rgb(0,0,0)" stroke-width="1"/>
<line x1="346" y1="534" x2="359" y2="534" stroke="rgb(0,0,0)" stroke-width="1"/>
<line x1="346" y1="375" x2="359" y2="375" stroke="rgb(200,0,0)" stroke-width="1"/>
<rect width="13" height="282" x="363" y="200" style="fill:rgb(240,240,0);stroke:none"/>
<rect width="13" height="282" x="363" y="200" rx="0" ry="0" style="fill:none;stroke-width:1;stroke:rgb(0,0,0)"/>
<line x1="369" y1="100" x2="369" y2="200" stroke="rgb(0,0,0)" stroke-width="1"/>
<line x1="363" y1="100" x2="376" y2="100" stroke="rgb(0,0,0)" stroke-width="1"/>
<line x1="369" y1="534" x2="369" y2="482" stroke="rgb(0,0,0)" stroke-width="1"/>
<line x1="363" y1="534" x2="376" y2="534" stroke="rgb(0,0,0)" stroke-width="1"/>
<line x1="363" y1="371" x2="376" y2="371" stroke="rgb(200,0,0)" stroke-width="1"/>
<rect width="13" height="280" x="380" y="202" style="fill:rgb(240,240,0);stroke:none"/>
<rect width="13" height="280" x="380" y="202" rx="0" ry="0" style="fill:none;stroke-width:1;stroke:rgb(0,0,0)"/>
<line x1="386" y1="102" x2="386" y2="202" stroke="rgb(0,0,0)" stroke-width="1"/>
<line x1="380" y1="102" x2="393" y2="102" stroke="rgb(0,0,0)" stroke-width="1"/>
<line x1="386" y1="534" x2="386" y2="482" stroke="rgb(0,0,0)" stroke-width="1"/>
<line x1="380" y1="534" x2="393" y2="534" stroke="rgb(0,0,0)" stroke-width="1"/>
<line x1="380" y1="372" x2="393" y2="372" stroke="rgb(200,0,0)" stroke-width="1"/>
<rect width="13" height="281" x="397" y="203" style="fill:rgb(240,240,0);stroke:none"/>
<rect width="13" height="281" x="397" y="203" rx="0" ry="0" style="fill:none;stroke-width:1;stroke:rgb(0,0,0)"/>
<line x1="403" y1="104" x2="403" y2="203" stroke="rgb(0,0,0)" stroke-width="1"/>
<line x1="397" y1="104" x2="410" y2="104" stroke="rgb(0,0,0)" stroke-width="1"/>
<line x1="403" y1="534" x2="403" y2="484" stroke="rgb(0,0,0)" stroke-width="1"/>
<line x1="397" y1="534" x2="410" y2="534" stroke="rgb(0,0,0)" stroke-width="1"/>
<line x1="397" y1="371" x2="410" y2="371" stroke="rgb(200,0,0)" stroke-width="1"/>
<rect width="13" height="281" x="414" y="202" style="fill:rgb(240,240,0);stroke:none"/>
<rect width="13" height="281" x="414" y="202" rx="0" ry="0" style="fill:none;stroke-width:1;stroke:rgb(0,0,0)"/>
<line x1="420" y1="102" x2="420" y2="202" stroke="rgb(0,0,0)" stroke-width="1"/>
<line x1="414" y1="102" x2="427" y2="102" stroke="rgb(0,0,0)" stroke-width="1"/>
<line x1="420" y1="534" x2="420" y2="483" stroke="rgb(0,0,0)" stroke-width="1"/>
<line x1="414" y1="534" x2="427" y2="534" stroke="rgb(0,0,0)" stroke-width="1"/>
<line x1="414" y1="370" x2="427" y2="370" stroke="rgb(200,0,0)" stroke-width="1"/>
<rect width="13" height="281" x="431" y="206" style="fill:rgb(240,240,0);stroke:none"/>
<rect width="13" height="281" x="431" y="206" rx="0" ry="0" style="fill:none;stroke-width:1;stroke:rgb(0,0,0)"/>
<line x1="437" y1="106" x2="437" y2="206" stroke="rgb(0,0,0)" stroke-width="1"/>
<line x1="431" y1="106" x2="444" y2="106" stroke="rgb(0,0,0)" stroke-width="1"/>
<line x1="437" y1="534" x2="437" y2="487" stroke="rgb(0,0,0)" stroke-width="1"/>
<line x1="431" y1="534" x2="444" y2="534" stroke="rgb(0,0,0)" stroke-width="1"/>
<line x1="431" y1="376" x2="444" y2="376" stroke="rgb(200,0,0)" stroke-width="1"/>
<rect width="13" height="281" x="448" y="206" style="fill:rgb(240,240,0);stroke:none"/>
<rect width="13" height="281" x="448" y="206" rx="0" ry="0" style="fill:none;stroke-width:1;stroke:rgb(0,0,0)"/>
<line x1="454" y1="107" x2="454" y2="206" stroke="rgb(0,0,0)" stroke-width="1"/>
<line x1="448" y1="107" x2="461" y2="107" stroke="rgb(0,0,0)" stroke-width="1"/>
<line x1="454" y1="534" x2="454" y2="487" stroke="rgb(0,0,0)" stroke-width="1"/>
<line x1="448" y1="534" x2="461" y2="534" stroke="rgb(0,0,0)" stroke-width="1"/>
<line x1="448" y1="379" x2="461" y2="379" stroke="rgb(200,0,0)" stroke-width="1"/>
<rect width="13" height="277" x="465" y="214" style="fill:rgb(240,240,0);stroke:none"/>
<rect width="13" height="277" x="465" y="214" rx="0" ry="0" style="fill:none;stroke-width:1;stroke:rgb(0,0,0)"/>
<line x1="471" y1="106" x2="471" y2="214" stroke="rgb(0,0,0)" stroke-width="1"/>
<line x1="465" y1="106" x2="478" y2="106" stroke="rgb(0,0,0)" stroke-width="1"/>
<line x1="471" y1="535" x2="471" y2="491" stroke="rgb(0,0,0)" stroke-width="1"/>
<line x1="465" y1="535" x2="478" y2="535" stroke="rgb(0,0,0)" stroke-width="1"/>
<line x1="465" y1="379" x2="478" y2="379" stroke="rgb(200,0,0)" stroke-width="1"/>
<rect width="13" height="283" x="482" y="207" style="fill:rgb(240,240,0);stroke:none"/>
<rect width="13" height="283" x="482" y="207" rx="0" ry="0" style="fill:none;stroke-width:1;stroke:rgb(0,0,0)"/>
<line x1="488" y1="103" x2="488" y2="207" stroke="rgb(0,0,0)" stroke-width="1"/>
<line x1="482" y1="103" x2="495" y2="103" stroke="rgb(0,0,0)" stroke-width="1"/>
<line x1="488" y1="534" x2="488" y2="490" stroke="rgb(0,0,0)" stroke-width="1"/>
<line x1="482" y1="534" x2="495" y2="534" stroke="rgb(0,0,0)" stroke-width="1"/>
<line x1="482" y1="376" x2="495" y2="376" stroke="rgb(200,0,0)" stroke-width="1"/>
<rect width="13" height="284" x="499" y="206" style="fill:rgb(240,240,0);stroke:none"/>
<rect width="13" height="284" x="499" y="206" rx="0" ry="0" style="fill:none;stroke-width:1;stroke:rgb(0,0,0)"/>
<line x1="505" y1="103" x2="505" y2="206" stroke="rgb(0,0,0)" stroke-width="1"/>
<line x1="499" y1="103" x2="512" y2="103" stroke="rgb(0,0,0)" stroke-width="1"/>
<line x1="505" y1="534" x2="505" y2="490" stroke="rgb(0,0,0)" stroke-width="1"/>
<line x1="499" y1="534" x2="512" y2="534" stroke="rgb(0,0,0)" stroke-width="1"/>
<line x1="499" y1="378" x2="512" y2="378" stroke="rgb(200,0,0)" stroke-width="1"/>
<rect width="13" height="275" x="516" y="207" style="fill:rgb(240,240,0);stroke:none"/>
<rect width="13" height="275" x="516" y="207" rx="0" ry="0" style="fill:none;stroke-width:1;stroke:rgb(0,0,0)"/>
<line x1="522" y1="102" x2="522" y2="207" stroke="rgb(0,0,0)" stroke-width="1"/>
<line x1="516" y1="102" x2="529" y2="102" stroke="rgb(0,0,0)" stroke-width="1"/>
<line x1="522" y1="535" x2="522" y2="482" stroke="rgb(0,0,0)" stroke-width="1"/>
<line x1="516" y1="535" x2="529" y2="535" stroke="rgb(0,0,0)" stroke-width="1"/>
<line x1="516" y1="375" x2="529" y2="375" stroke="rgb(200,0,0)" stroke-width="1"/>
<rect width="13" height="276" x="533" y="210" style="fill:rgb(240,240,0);stroke:none"/>
<rect width="13" height="276" x="533" y="210" rx="0" ry="0" style="fill:none;stroke-width:1;stroke:rgb(0,0,0)"/>
<line x1="539" y1="102" x2="539" y2="210" stroke="rgb(0,0,0)" stroke-width="1"/>
<line x1="533" y1="102" x2="546" y2="102" stroke="rgb(0,0,0)" stroke-width="1"/>
<line x1="539" y1="535" x2="539" y2="486" stroke="rgb(0,0,0)" stroke-width="1"/>
<line x1="533" y1="535" x2="546" y2="535" stroke="rgb(0,0,0)" stroke-width="1"/>
<line x1="533" y1="375" x2="546" y2="375" stroke="rgb(200,0,0)" stroke-width="1"/>
<rect width="13" height="276" x="550" y="208" style="fill:rgb(240,240,0);stroke:none"/>
<rect width="13" height="276" x="550" y="208" rx="0" ry="0" style="fill:none;stroke-width:1;stroke:rgb(0,0,0)"/>
<line x1="556" y1="107" x2="556" y2="208" stroke="rgb(0,0,0)" stroke-width="1"/>
<line x1="550" y1="107" x2="563" y2="107" stroke="rgb(0,0,0)" stroke-width="1"/>
<line x1="556" y1="539" x2="556" y2="484" stroke="rgb(0,0,0)" stroke-width="1"/>
<line x1="550" y1="539" x2="563" y2="539" stroke="rgb(0,0,0)" stroke-width="1"/>
<line x1="550" y1="368" x2="563" y2="368" stroke="rgb(200,0,0)" stroke-width="1"/>
<rect width="13" height="284" x="567" y="198" style="fill:rgb(240,240,0);stroke:none"/>
<rect width="13" height="284" x="567" y="198" rx="0" ry="0" style="fill:none;stroke-width:1;stroke:rgb(0,0,0)"/>
<line x1="573" y1="100" x2="573" y2="198" stroke="rgb(0,0,0)" stroke-width="1"/>
<line x1="567" y1="100" x2="580" y2="100" stroke="rgb(0,0,0)" stroke-width="1"/>
<line x1="573" y1="532" x2="573" y2="482" stroke="rgb(0,0,0)" stroke-width="1"/>
<line x1="567" y1="532" x2="580" y2="532" stroke="rgb(0,0,0)" stroke-width="1"/>
<line x1="567" y1="362" x2="580" y2="362" stroke="rgb(200,0,0)" stroke-width="1"/>
<rect width="13" height="277" x="584" y="203" style="fill:rgb(240,240,0);stroke:none"/>
<rect width="13" height="277" x="584" y="203" rx="0" ry="0" style="fill:none;stroke-width:1;stroke:rgb(0,0,0)"/>
<line x1="590" y1="103" x2="590" y2="203" stroke="rgb(0,0,0)" stroke-width="1"/>
<line x1="584" y1="103" x2="597" y2="103" stroke="rgb(0,0,0)" stroke-width="1"/>
<line x1="590" y1="535" x2="590" y2="480" stroke="rgb(0,0,0)" stroke-width="1"/>
<line x1="584" y1="535" x2="597" y2="535" stroke="rgb(0,0,0)" stroke-width="1"/>
<line x1="584" y1="367" x2="597" y2="367" stroke="rgb(200,0,0)" stroke-width="1"/>
<rect width="13" height="267" x="601" y="212" style="fill:rgb(240,240,0);stroke:none"/>
<rect width="13" height="267" x="601" y="212" rx="0" ry="0" style="fill:none;stroke-width:1;stroke:rgb(0,0,0)"/>
<line x1="607" y1="110" x2="607" y2="212" stroke="rgb(0,0,0)" stroke-width="1"/>
<line x1="601" y1="110" x2="614" y2="110" stroke="rgb(0,0,0)" stroke-width="1"/>
<line x1="607" y1="536" x2="607" y2="479" stroke="rgb(0,0,0)" stroke-width="1"/>
<line x1="601" y1="536" x2="614" y2="536" stroke="rgb(0,0,0)" stroke-width="1"/>
<line x1="601" y1="372" x2="614" y2="372" stroke="rgb(200,0,0)" stroke-width="1"/>
<rect width="13" height="277" x="618" y="210" style="fill:rgb(240,240,0);stroke:none"/>
<rect width="13" height="277" x="618" y="210" rx="0" ry="0" style="fill:none;stroke-width:1;stroke:rgb(0,0,0)"/>
<line x1="624" y1="108" x2="624" y2="210" stroke="rgb(0,0,0)" stroke-width="1"/>
<line x1="618" y1="108" x2="631" y2="108" stroke="rgb(0,0,0)" stroke-width="1"/>
<line x1="624" y1="539" x2="624" y2="487" stroke="rgb(0,0,0)" stroke-width="1"/>
<line x1="618" y1="539" x2="631" y2="539" stroke="rgb(0,0,0)" stroke-width="1"/>
<line x1="618" y1="367" x2="631" y2="367" stroke="rgb(200,0,0)" stroke-width="1"/>
<rect width="13" height="253" x="635" y="236" style="fill:rgb(240,240,0);stroke:none"/>
<rect width="13" height="253" x="635" y="236" rx="0" ry="0" style="fill:none;stroke-width:1;stroke:rgb(0,0,0)"/>
<line x1="641" y1="138" x2="641" y2="236" stroke="rgb(0,0,0)" stroke-width="1"/>
<line x1="635" y1="138" x2="648" y2="138" stroke="rgb(0,0,0)" stroke-width="1"/>
<line x1="641" y1="543" x2="641" y2="489" stroke="rgb(0,0,0)" stroke-width="1"/>
<line x1="635" y1="543" x2="648" y2="543" stroke="rgb(0,0,0)" stroke-width="1"/>
<line x1="635" y1="387" x2="648" y2="387" stroke="rgb(200,0,0)" stroke-width="1"/>
<rect width="13" height="0" x="652" y="560" style="fill:rgb(240,240,0);stroke:none"/>
<rect width="13" height="0" x="652" y="560" rx="0" ry="0" style="fill:none;stroke-width:1;stroke:rgb(0,0,0)"/>
<line x1="658" y1="560" x2="658" y2="560" stroke="rgb(0,0,0)" stroke-width="1"/>
<line x1="652" y1="560" x2="665" y2="560" stroke="rgb(0,0,0)" stroke-width="1"/>
<line x1="658" y1="560" x2="658" y2="560" stroke="rgb(0,0,0)" stroke-width="1"/>
<line x1="652" y1="560" x2="665" y2="560" stroke="rgb(0,0,0)" stroke-width="1"/>
<line x1="652" y1="560" x2="665" y2="560" stroke="rgb(200,0,0)" stroke-width="1"/>
<rect width="13" height="0" x="669" y="560" style="fill:rgb(240,240,0);stroke:none"/>
<rect width="13" height="0" x="669" y="560" rx="0" ry="0" style="fill:none;stroke-width:1;stroke:rgb(0,0,0)"/>
<line x1="675" y1="560" x2="675" y2="560" stroke="rgb(0,0,0)" stroke-width="1"/>
<line x1="669" y1="560" x2="682" y2="560" stroke="rgb(0,0,0)" stroke-width="1"/>
<line x1="675" y1="560" x2="675" y2="560" stroke="rgb(0,0,0)" stroke-width="1"/>
<line x1="669" y1="560" x2="682" y2="560" stroke="rgb(0,0,0)" stroke-width="1"/>
<line x1="669" y1="560" x2="682" y2="560" stroke="rgb(200,0,0)" stroke-width="1"/>
<rect width="13" height="0" x="686" y="560" style="fill:rgb(240,240,0);stroke:none"/>
<rect width="13" height="0" x="686" y="560" rx="0" ry="0" style="fill:none;stroke-width:1;stroke:rgb(0,0,0)"/>
<line x1="692" y1="560" x2="692" y2="560" stroke="rgb(0,0,0)" stroke-width="1"/>
<line x1="686" y1="560" x2="699" y2="560" stroke="rgb(0,0,0)" stroke-width="1"/>
<line x1="692" y1="560" x2="692" y2="560" stroke="rgb(0,0,0)" stroke-width="1"/>
<line x1="686" y1="560" x2="699" y2="560" stroke="rgb(0,0,0)" stroke-width="1"/>
<line x1="686" y1="560" x2="699" y2="560" stroke="rgb(200,0,0)" stroke-width="1"/>
<rect width="13" height="0" x="703" y="560" style="fill:rgb(240,240,0);stroke:none"/>
<rect width="13" height="0" x="703" y="560" rx="0" ry="0" style="fill:none;stroke-width:1;stroke:rgb(0,0,0)"/>
<line x1="709" y1="560" x2="709" y2="560" stroke="rgb(0,0,0)" stroke-width="1"/>
<line x1="703" y1="560" x2="716" y2="560" stroke="rgb(0,0,0)" stroke-width="1"/>
<line x1="709" y1="560" x2="709" y2="560" stroke="rgb(0,0,0)" stroke-width="1"/>
<line x1="703" y1="560" x2="716" y2="560" stroke="rgb(0,0,0)" stroke-width="1"/>
<line x1="703" y1="560" x2="716" y2="560" stroke="rgb(200,0,0)" stroke-width="1"/>
<rect width="13" height="0" x="720" y="560" style="fill:rgb(240,240,0);stroke:none"/>
<rect width="13" height="0" x="720" y="560" rx="0" ry="0" style="fill:none;stroke-width:1;stroke:rgb(0,0,0)"/>
<line x1="726" y1="560" x2="726" y2="560" stroke="rgb(0,0,0)" stroke-width="1"/>
<line x1="720" y1="560" x2="733" y2="560" stroke="rgb(0,0,0)" stroke-width="1"/>
<line x1="726" y1="560" x2="726" y2="560" stroke="rgb(0,0,0)" stroke-width="1"/>
<line x1="720" y1="560" x2="733" y2="560" stroke="rgb(0,0,0)" stroke-width="1"/>
<line x1="720" y1="560" x2="733" y2="560" stroke="rgb(200,0,0)" stroke-width="1"/>
<rect width="13" height="0" x="737" y="560" style="fill:rgb(240,240,0);stroke:none"/>
<rect width="13" height="0" x="737" y="560" rx="0" ry="0" style="fill:none;stroke-width:1;stroke:rgb(0,0,0)"/>
<line x1="743" y1="560" x2="743" y2="560" stroke="rgb(0,0,0)" stroke-width="1"/>
<line x1="737" y1="560" x2="750" y2="560" stroke="rgb(0,0,0)" stroke-width="1"/>
<line x1="743" y1="560" x2="743" y2="560" stroke="rgb(0,0,0)" stroke-width="1"/>
<line x1="737" y1="560" x2="750" y2="560" stroke="rgb(0,0,0)" stroke-width="1"/>
<line x1="737" y1="560" x2="750" y2="560" stroke="rgb(200,0,0)" stroke-width="1"/>
<rect width="13" height="0" x="754" y="560" style="fill:rgb(240,240,0);stroke:none"/>
<rect width="13" height="0" x="754" y="560" rx="0" ry="0" style="fill:none;stroke-width:1;stroke:rgb(0,0,0)"/>
<line x1="760" y1="560" x2="760" y2="560" stroke="rgb(0,0,0)" stroke-width="1"/>
<line x1="754" y1="560" x2="767" y2="560" stroke="rgb(0,0,0)" stroke-width="1"/>
<line x1="760" y1="560" x2="760" y2="560" stroke="rgb(0,0,0)" stroke-width="1"/>
<line x1="754" y1="560" x2="767" y2="560" stroke="rgb(0,0,0)" stroke-width="1"/>
<line x1="754" y1="560" x2="767" y2="560" stroke="rgb(200,0,0)" stroke-width="1"/>
<line x1="29" y1="342" x2="46" y2="344" stroke="rgb(0,0,200)" stroke-width="1"/>
<line x1="46" y1="344" x2="63" y2="343" stroke="rgb(0,0,200)" stroke-width="1"/>
<line x1="63" y1="343" x2="80" y2="344" stroke="rgb(0,0,200)" stroke-width="1"/>
<line x1="80" y1="344" x2="97" y2="342" stroke="rgb(0,0,200)" stroke-width="1"/>
<line x1="97" y1="342" x2="114" y2="346" stroke="rgb(0,0,200)" stroke-width="1"/>
<line x1="114" y1="346" x2="131" y2="342" stroke="rgb(0,0,200)" stroke-width="1"/>
<line x1="131" y1="342" x2="148" y2="341" stroke="rgb(0,0,200)" stroke-width="1"/>
<line x1="148" y1="341" x2="165" y2="344" stroke="rgb(0,0,200)" stroke-width="1"/>
<line x1="165" y1="344" x2="182" y2="343" stroke="rgb(0,0,200)" stroke-width="1"/>
<line x1="182" y1="343" x2="199" y2="343" stroke="rgb(0,0,200)" stroke-width="1"/>
<line x1="199" y1="343" x2="216" y2="343" stroke="rgb(0,0,200)" stroke-width="1"/>
<line x1="216" y1="343" x2="233" y2="342" stroke="rgb(0,0,200)" stroke-width="1"/>
<line x1="233" y1="342" x2="250" y2="342" stroke="rgb(0,0,200)" stroke-width="1"/>
<line x1="250" y1="342" x2="267" y2="343" stroke="rgb(0,0,200)" stroke-width="1"/>
<line x1="267" y1="343" x2="284" y2="341" stroke="rgb(0,0,200)" stroke-width="1"/>
<line x1="284" y1="341" x2="301" y2="343" stroke="rgb(0,0,200)" stroke-width="1"/>
<line x1="301" y1="343" x2="318" y2="343" stroke="rgb(0,0,200)" stroke-width="1"/>
<line x1="318" y1="343" x2="335" y2="343" stroke="rgb(0,0,200)" stroke-width="1"/>
<line x1="335" y1="343" x2="352" y2="343" stroke="rgb(0,0,200)" stroke-width="1"/>
<line x1="352" y1="343" x2="369" y2="342" stroke="rgb(0,0,200)" stroke-width="1"/>
<line x1="369" y1="342" x2="386" y2="342" stroke="rgb(0,0,200)" stroke-width="1"/>
<line x1="386" y1="342" x2="403" y2="342" stroke="rgb(0,0,200)" stroke-width="1"/>
<line x1="403" y1="342" x2="420" y2="341" stroke="rgb(0,0,200)" stroke-width="1"/>
<line x1="420" y1="341" x2="437" y2="344" stroke="rgb(0,0,200)" stroke-width="1"/>
<line x1="437" y1="344" x2="454" y2="346" stroke="rgb(0,0,200)" stroke-width="1"/>
<line x1="454" y1="346" x2="471" y2="348" stroke="rgb(0,0,200)" stroke-width="1"/>
<line x1="471" y1="348" x2="488" y2="345" stroke="rgb(0,0,200)" stroke-width="1"/>
<line x1="488" y1="345" x2="505" y2="344" stroke="rgb(0,0,200)" stroke-width="1"/>
<line x1="505" y1="344" x2="522" y2="343" stroke="rgb(0,0,200)" stroke-width="1"/>
<line x1="522" y1="343" x2="539" y2="344" stroke="rgb(0,0,200)" stroke-width="1"/>
<line x1="539" y1="344" x2="556" y2="344" stroke="rgb(0,0,200)" stroke-width="1"/>
<line x1="556" y1="344" x2="573" y2="337" stroke="rgb(0,0,200)" stroke-width="1"/>
<line x1="573" y1="337" x2="590" y2="340" stroke="rgb(0,0,200)" stroke-width="1"/>
<line x1="590" y1="340" x2="607" y2="342" stroke="rgb(0,0,200)" stroke-width="1"/>
<line x1="607" y1="342" x2="624" y2="341" stroke="rgb(0,0,200)" stroke-width="1"/>
<line x1="624" y1="341" x2="641" y2="337" stroke="rgb(0,0,200)" stroke-width="1"/>
<line x1="641" y1="337" x2="658" y2="343" stroke="rgb(0,0,200)" stroke-width="1"/>
<line x1="658" y1="343" x2="675" y2="352" stroke="rgb(0,0,200)" stroke-width="1"/>
<line x1="675" y1="352" x2="692" y2="337" stroke="rgb(0,0,200)" stroke-width="1"/>
<line x1="692" y1="337" x2="709" y2="323" stroke="rgb(0,0,200)" stroke-width="1"/>
<line x1="709" y1="323" x2="726" y2="354" stroke="rgb(0,0,200)" stroke-width="1"/>
<line x1="726" y1="354" x2="743" y2="417" stroke="rgb(0,0,200)" stroke-width="1"/>
<line x1="743" y1="417" x2="760" y2="351" stroke="rgb(0,0,200)" stroke-width="1"/>
</svg>
