<?xml version="1.0" standalone="no"?>
<!DOCTYPE svg PUBLIC "-//W3C//DTD SVG 1.1//EN" "http://www.w3.org/Graphics/SVG/1.1/DTD/svg11.dtd">
<svg width="800" height="600" version="1.1" xmlns="http://www.w3.org/2000/svg">
<rect width="800" height="600" x="0" y="0" style="fill:rgb(238,238,238);stroke:none"/>
<rect width="800" height="600" x="0" y="0" style="fill:rgb(255,255,255);stroke:none"/>
<text x="2" y="566" fill="rgb(0,0,0)" font-family="Arial" font-size="12">0</text>
<text x="2" y="482" fill="rgb(0,0,0)" font-family="Arial" font-size="12">200</text>
<text x="2" y="397" fill="rgb(0,0,0)" font-family="Arial" font-size="12">400</text>
<text x="2" y="312" fill="rgb(0,0,0)" font-family="Arial" font-size="12">600</text>
<text x="2" y="227" fill="rgb(0,0,0)" font-family="Arial" font-size="12">800</text>
<text x="2" y="142" fill="rgb(0,0,0)" font-family="Arial" font-size="12">1000</text>
<text x="2" y="57" fill="rgb(0,0,0)" font-family="Arial" font-size="12">1200</text>
<text x="250" y="30" fill="rgb(0,0,0)" font-family="Arial" font-size="12">Distribution of sequence lengths over all sequences</text>
<line x1="37" y1="560" x2="790" y2="560" stroke="rgb(0,0,0)" stroke-width="1"/>
<line x1="37" y1="560" x2="37" y2="40" stroke="rgb(0,0,0)" stroke-width="1"/>
<text x="330" y="595" fill="rgb(0,0,0)" font-family="Arial" font-size="12">Sequence Length (bp)</text>
<text x="30" y="575" fill="rgb(0,0,0)" font-family="Arial" font-size="12">30-39</text>
<rect width="22" height="520" x="59" y="40" style="fill:rgb(230,230,230);stroke:none"/>
<text x="74" y="575" fill="rgb(0,0,0)" font-family="Arial" font-size="12">50-59</text>
<rect width="22" height="520" x="103" y="40" style="fill:rgb(230,230,230);stroke:none"/>
<text x="118" y="575" fill="rgb(0,0,0)" font-family="Arial" font-size="12">70-79</text>
<rect width="22" height="520" x="147" y="40" style="fill:rgb(230,230,230);stroke:none"/>
<text x="162" y="575" fill="rgb(0,0,0)" font-family="Arial" font-size="12">90-99</text>
<rect width="22" height="520" x="191" y="40" style="fill:rgb(230,230,230);stroke:none"/>
<rect width="22" height="520" x="235" y="40" style="fill:rgb(230,230,230);stroke:none"/>
<text x="220" y="575" fill="rgb(0,0,0)" font-family="Arial" font-size="12">120-129</text>
<rect width="22" height="520" x="279" y="40" style="fill:rgb(230,230,230);stroke:none"/>
<text x="286" y="575" fill="rgb(0,0,0)" font-family="Arial" font-size="12">150-159</text>
<rect width="22" height="520" x="323" y="40" style="fill:rgb(230,230,230);stroke:none"/>
<rect width="22" height="520" x="367" y="40" style="fill:rgb(230,230,230);stroke:none"/>
<text x="352" y="575" fill="rgb(0,0,0)" font-family="Arial" font-size="12">180-189</text>
<rect width="22" height="520" x="411" y="40" style="fill:rgb(230,230,230);stroke:none"/>
<text x="418" y="575" fill="rgb(0,0,0)" font-family="Arial" font-size="12">210-219</text>
<rect width="22" height="520" x="455" y="40" style="fill:rgb(230,230,230);stroke:none"/>
<rect width="22" height="520" x="499" y="40" style="fill:rgb(230,230,230);stroke:none"/>
<text x="484" y="575" fill="rgb(0,0,0)" font-family="Arial" font-size="12">240-249</text>
<rect width="22" height="520" x="543" y="40" style="fill:rgb(230,230,230);stroke:none"/>
<text x="550" y="575" fill="rgb(0,0,0)" font-family="Arial" font-size="12">270-279</text>
<rect width="22" height="520" x="587" y="40" style="fill:rgb(230,230,230);stroke:none"/>
<rect width="22" height="520" x="631" y="40" style="fill:rgb(230,230,230);stroke:none"/>
<text x="616" y="575" fill="rgb(0,0,0)" font-family="Arial" font-size="12">300-309</text>
<rect width="22" height="520" x="675" y="40" style="fill:rgb(230,230,230);stroke:none"/>
<text x="682" y="575" fill="rgb(0,0,0)" font-family="Arial" font-size="12">330-339</text>
<rect width="22" height="520" x="719" y="40" style="fill:rgb(230,230,230);stroke:none"/>
<line x1="37" y1="560" x2="790" y2="560" stroke="rgb(180,180,180)" stroke-width="1"/>
<line x1="37" y1="476" x2="790" y2="476" stroke="rgb(180,180,180)" stroke-width="1"/>
<line x1="37" y1="391" x2="790" y2="391" stroke="rgb(180,180,180)" stroke-width="1"/>
<line x1="37" y1="306" x2="790" y2="306" stroke="rgb(180,180,180)" stroke-width="1"/>
<line x1="37" y1="221" x2="790" y2="221" stroke="rgb(180,180,180)" stroke-width="1"/>
<line x1="37" y1="136" x2="790" y2="136" stroke="rgb(180,180,180)" stroke-width="1"/>
<line x1="37" y1="51" x2="790" y2="51" stroke="rgb(180,180,180)" stroke-width="1"/>
<line x1="48" y1="560" x2="70" y2="40" stroke="rgb(136,34,85)" stroke-width="1"/>
<line x1="70" y1="40" x2="92" y2="92" stroke="rgb(136,34,85)" stroke-width="1"/>
<line x1="92" y1="92" x2="114" y2="140" stroke="rgb(136,34,85)" stroke-width="1"/>
<line x1="114" y1="140" x2="136" y2="202" stroke="rgb(136,34,85)" stroke-width="1"/>
<line x1="136" y1="202" x2="158" y2="250" stroke="rgb(136,34,85)" stroke-width="1"/>
<line x1="158" y1="250" x2="180" y2="287" stroke="rgb(136,34,85)" stroke-width="1"/>
<line x1="180" y1="287" x2="202" y2="312" stroke="rgb(136,34,85)" stroke-width="1"/>
<line x1="202" y1="312" x2="224" y2="354" stroke="rgb(136,34,85)" stroke-width="1"/>
<line x1="224" y1="354" x2="246" y2="381" stroke="rgb(136,34,85)" stroke-width="1"/>
<line x1="246" y1="381" x2="268" y2="406" stroke="rgb(136,34,85)" stroke-width="1"/>
<line x1="268" y1="406" x2="290" y2="413" stroke="rgb(136,34,85)" stroke-width="1"/>
<line x1="290" y1="413" x2="312" y2="430" stroke="rgb(136,34,85)" stroke-width="1"/>
<line x1="312" y1="430" x2="334" y2="448" stroke="rgb(136,34,85)" stroke-width="1"/>
<line x1="334" y1="448" x2="356" y2="459" stroke="rgb(136,34,85)" stroke-width="1"/>
<line x1="356" y1="459" x2="378" y2="465" stroke="rgb(136,34,85)" stroke-width="1"/>
<line x1="378" y1="465" x2="400" y2="479" stroke="rgb(136,34,85)" stroke-width="1"/>
<line x1="400" y1="479" x2="422" y2="481" stroke="rgb(136,34,85)" stroke-width="1"/>
<line x1="422" y1="481" x2="444" y2="490" stroke="rgb(136,34,85)" stroke-width="1"/>
<line x1="444" y1="490" x2="466" y2="499" stroke="rgb(136,34,85)" stroke-width="1"/>
<line x1="466" y1="499" x2="488" y2="507" stroke="rgb(136,34,85)" stroke-width="1"/>
<line x1="488" y1="507" x2="510" y2="520" stroke="rgb(136,34,85)" stroke-width="1"/>
<line x1="510" y1="520" x2="532" y2="522" stroke="rgb(136,34,85)" stroke-width="1"/>
<line x1="532" y1="522" x2="554" y2="531" stroke="rgb(136,34,85)" stroke-width="1"/>
<line x1="554" y1="531" x2="576" y2="544" stroke="rgb(136,34,85)" stroke-width="1"/>
<line x1="576" y1="544" x2="598" y2="544" stroke="rgb(136,34,85)" stroke-width="1"/>
<line x1="598" y1="544" x2="620" y2="549" stroke="rgb(136,34,85)" stroke-width="1"/>
<line x1="620" y1="549" x2="642" y2="552" stroke="rgb(136,34,85)" stroke-width="1"/>
<line x1="642" y1="552" x2="664" y2="555" stroke="rgb(136,34,85)" stroke-width="1"/>
<line x1="664" y1="555" x2="686" y2="558" stroke="rgb(136,34,85)" stroke-width="1"/>
<line x1="686" y1="558" x2="708" y2="558" stroke="rgb(136,34,85)" stroke-width="1"/>
<line x1="708" y1="558" x2="730" y2="560" stroke="rgb(136,34,85)" stroke-width="1"/>
<line x1="730" y1="560" x2="752" y2="560" stroke="rgb(136,34,85)" stroke-width="1"/>
<rect width="130" height="23" x="660" y="40" style="fill:rgb(255,255,255);stroke:none"/>
<rect width="130" height="23" x="660" y="40" rx="0" ry="0" style="fill:none;stroke-width:1;stroke:rgb(192,192,192)"/>
<text x="663" y="55" fill="rgb(136,34,85)" font-family="Arial" font-size="12" font-weight="bold">Sequence Length</text>
</svg>
